<?xml version="1.0" encoding="UTF-8" standalone="no"?>
<!DOCTYPE svg PUBLIC "-//W3C//DTD SVG 1.1//EN"
 "http://www.w3.org/Graphics/SVG/1.1/DTD/svg11.dtd">
<!-- Generated by graphviz version 2.43.0 (0)
 -->
<!-- Title: QA_Architecture Pages: 1 -->
<svg width="5556pt" height="188pt"
 viewBox="0.00 0.00 5556.00 188.00" xmlns="http://www.w3.org/2000/svg" xmlns:xlink="http://www.w3.org/1999/xlink">
<g id="graph0" class="graph" transform="scale(1 1) rotate(0) translate(4 184)">
<title>QA_Architecture</title>
<polygon fill="white" stroke="transparent" points="-4,4 -4,-184 5552,-184 5552,4 -4,4"/>
<!-- sub_Agentensystem -->
<g id="node1" class="node">
<title>sub_Agentensystem</title>
<polygon fill="lightblue" stroke="black" points="523,-180 398,-180 398,-144 523,-144 523,-180"/>
<text text-anchor="middle" x="460.5" y="-158.3" font-family="DejaVu Sans" font-size="14.00">Agentensystem</text>
</g>
<!-- err_ui_state_drift -->
<g id="node22" class="node">
<title>err_ui_state_drift</title>
<polygon fill="lightyellow" stroke="black" points="513.5,-108 407.5,-108 407.5,-72 513.5,-72 513.5,-108"/>
<text text-anchor="middle" x="460.5" y="-86.3" font-family="DejaVu Sans" font-size="14.00">ui_state_drift</text>
</g>
<!-- sub_Agentensystem&#45;&gt;err_ui_state_drift -->
<g id="edge6" class="edge">
<title>sub_Agentensystem&#45;&gt;err_ui_state_drift</title>
<path fill="none" stroke="black" d="M460.5,-143.7C460.5,-135.98 460.5,-126.71 460.5,-118.11"/>
<polygon fill="black" stroke="black" points="464,-118.1 460.5,-108.1 457,-118.1 464,-118.1"/>
</g>
<!-- sub_Chat -->
<g id="node2" class="node">
<title>sub_Chat</title>
<polygon fill="lightblue" stroke="black" points="1236.5,-180 1182.5,-180 1182.5,-144 1236.5,-144 1236.5,-180"/>
<text text-anchor="middle" x="1209.5" y="-158.3" font-family="DejaVu Sans" font-size="14.00">Chat</text>
</g>
<!-- err_async_race -->
<g id="node11" class="node">
<title>err_async_race</title>
<polygon fill="lightyellow" stroke="black" points="1256.5,-108 1162.5,-108 1162.5,-72 1256.5,-72 1256.5,-108"/>
<text text-anchor="middle" x="1209.5" y="-86.3" font-family="DejaVu Sans" font-size="14.00">async_race</text>
</g>
<!-- sub_Chat&#45;&gt;err_async_race -->
<g id="edge2" class="edge">
<title>sub_Chat&#45;&gt;err_async_race</title>
<path fill="none" stroke="black" d="M1209.5,-143.7C1209.5,-135.98 1209.5,-126.71 1209.5,-118.11"/>
<polygon fill="black" stroke="black" points="1213,-118.1 1209.5,-108.1 1206,-118.1 1213,-118.1"/>
</g>
<!-- err_contract_schema_drift -->
<g id="node12" class="node">
<title>err_contract_schema_drift</title>
<polygon fill="lightyellow" stroke="black" points="1883.5,-108 1713.5,-108 1713.5,-72 1883.5,-72 1883.5,-108"/>
<text text-anchor="middle" x="1798.5" y="-86.3" font-family="DejaVu Sans" font-size="14.00">contract_schema_drift</text>
</g>
<!-- sub_Chat&#45;&gt;err_contract_schema_drift -->
<g id="edge5" class="edge">
<title>sub_Chat&#45;&gt;err_contract_schema_drift</title>
<path fill="none" stroke="black" d="M1236.73,-157.76C1318.62,-148.03 1565.46,-118.7 1703.12,-102.34"/>
<polygon fill="black" stroke="black" points="1703.73,-105.79 1713.25,-101.13 1702.91,-98.84 1703.73,-105.79"/>
</g>
<!-- err_late_signal_use_after_destroy -->
<g id="node15" class="node">
<title>err_late_signal_use_after_destroy</title>
<polygon fill="lightyellow" stroke="black" points="1038,-108 819,-108 819,-72 1038,-72 1038,-108"/>
<text text-anchor="middle" x="928.5" y="-86.3" font-family="DejaVu Sans" font-size="14.00">late_signal_use_after_destroy</text>
</g>
<!-- sub_Chat&#45;&gt;err_late_signal_use_after_destroy -->
<g id="edge3" class="edge">
<title>sub_Chat&#45;&gt;err_late_signal_use_after_destroy</title>
<path fill="none" stroke="black" d="M1182.3,-154.22C1142.13,-144.22 1065.38,-125.1 1006.76,-110.49"/>
<polygon fill="black" stroke="black" points="1007.32,-107.03 996.77,-108.01 1005.63,-113.82 1007.32,-107.03"/>
</g>
<!-- err_request_context_loss -->
<g id="node19" class="node">
<title>err_request_context_loss</title>
<polygon fill="lightyellow" stroke="black" points="2305,-108 2144,-108 2144,-72 2305,-72 2305,-108"/>
<text text-anchor="middle" x="2224.5" y="-86.3" font-family="DejaVu Sans" font-size="14.00">request_context_loss</text>
</g>
<!-- sub_Chat&#45;&gt;err_request_context_loss -->
<g id="edge4" class="edge">
<title>sub_Chat&#45;&gt;err_request_context_loss</title>
<path fill="none" stroke="black" d="M1236.65,-159.13C1365.05,-150.27 1914.27,-112.4 2133.55,-97.27"/>
<polygon fill="black" stroke="black" points="2134.01,-100.75 2143.74,-96.57 2133.52,-93.77 2134.01,-100.75"/>
</g>
<!-- sub_Chat&#45;&gt;err_ui_state_drift -->
<g id="edge1" class="edge">
<title>sub_Chat&#45;&gt;err_ui_state_drift</title>
<path fill="none" stroke="black" d="M1182.4,-158.47C1075.3,-148.46 679.81,-111.5 524.09,-96.94"/>
<polygon fill="black" stroke="black" points="524.03,-93.42 513.74,-95.98 523.37,-100.39 524.03,-93.42"/>
</g>
<!-- sub_Debug_EventBus -->
<g id="node3" class="node">
<title>sub_Debug_EventBus</title>
<polygon fill="lightblue" stroke="black" points="2801,-180 2668,-180 2668,-144 2801,-144 2801,-180"/>
<text text-anchor="middle" x="2734.5" y="-158.3" font-family="DejaVu Sans" font-size="14.00">Debug/EventBus</text>
</g>
<!-- sub_Debug_EventBus&#45;&gt;err_contract_schema_drift -->
<g id="edge13" class="edge">
<title>sub_Debug_EventBus&#45;&gt;err_contract_schema_drift</title>
<path fill="none" stroke="black" d="M2667.94,-156.02C2504.61,-143.81 2083.58,-112.32 1893.78,-98.13"/>
<polygon fill="black" stroke="black" points="1893.78,-94.62 1883.54,-97.36 1893.26,-101.6 1893.78,-94.62"/>
</g>
<!-- err_debug_false_truth -->
<g id="node13" class="node">
<title>err_debug_false_truth</title>
<polygon fill="lightyellow" stroke="black" points="3168.5,-108 3026.5,-108 3026.5,-72 3168.5,-72 3168.5,-108"/>
<text text-anchor="middle" x="3097.5" y="-86.3" font-family="DejaVu Sans" font-size="14.00">debug_false_truth</text>
</g>
<!-- sub_Debug_EventBus&#45;&gt;err_debug_false_truth -->
<g id="edge12" class="edge">
<title>sub_Debug_EventBus&#45;&gt;err_debug_false_truth</title>
<path fill="none" stroke="black" d="M2801.08,-148.16C2861.7,-136.47 2951.36,-119.18 3016.19,-106.68"/>
<polygon fill="black" stroke="black" points="3017.22,-110.05 3026.38,-104.71 3015.9,-103.17 3017.22,-110.05"/>
</g>
<!-- sub_Metrics -->
<g id="node4" class="node">
<title>sub_Metrics</title>
<polygon fill="lightblue" stroke="black" points="4852,-180 4785,-180 4785,-144 4852,-144 4852,-180"/>
<text text-anchor="middle" x="4818.5" y="-158.3" font-family="DejaVu Sans" font-size="14.00">Metrics</text>
</g>
<!-- err_metrics_false_success -->
<g id="node16" class="node">
<title>err_metrics_false_success</title>
<polygon fill="lightyellow" stroke="black" points="4903.5,-108 4733.5,-108 4733.5,-72 4903.5,-72 4903.5,-108"/>
<text text-anchor="middle" x="4818.5" y="-86.3" font-family="DejaVu Sans" font-size="14.00">metrics_false_success</text>
</g>
<!-- sub_Metrics&#45;&gt;err_metrics_false_success -->
<g id="edge14" class="edge">
<title>sub_Metrics&#45;&gt;err_metrics_false_success</title>
<path fill="none" stroke="black" d="M4818.5,-143.7C4818.5,-135.98 4818.5,-126.71 4818.5,-118.11"/>
<polygon fill="black" stroke="black" points="4822,-118.1 4818.5,-108.1 4815,-118.1 4822,-118.1"/>
</g>
<!-- sub_Persistenz_SQLite -->
<g id="node5" class="node">
<title>sub_Persistenz_SQLite</title>
<polygon fill="lightblue" stroke="black" points="5047,-180 4910,-180 4910,-144 5047,-144 5047,-180"/>
<text text-anchor="middle" x="4978.5" y="-158.3" font-family="DejaVu Sans" font-size="14.00">Persistenz/SQLite</text>
</g>
<!-- sub_Prompt_System -->
<g id="node6" class="node">
<title>sub_Prompt_System</title>
<polygon fill="lightblue" stroke="black" points="2286,-180 2163,-180 2163,-144 2286,-144 2286,-180"/>
<text text-anchor="middle" x="2224.5" y="-158.3" font-family="DejaVu Sans" font-size="14.00">Prompt&#45;System</text>
</g>
<!-- sub_Prompt_System&#45;&gt;err_request_context_loss -->
<g id="edge7" class="edge">
<title>sub_Prompt_System&#45;&gt;err_request_context_loss</title>
<path fill="none" stroke="black" d="M2224.5,-143.7C2224.5,-135.98 2224.5,-126.71 2224.5,-118.11"/>
<polygon fill="black" stroke="black" points="2228,-118.1 2224.5,-108.1 2221,-118.1 2228,-118.1"/>
</g>
<!-- sub_Provider_Ollama -->
<g id="node7" class="node">
<title>sub_Provider_Ollama</title>
<polygon fill="lightblue" stroke="black" points="1862,-180 1735,-180 1735,-144 1862,-144 1862,-180"/>
<text text-anchor="middle" x="1798.5" y="-158.3" font-family="DejaVu Sans" font-size="14.00">Provider/Ollama</text>
</g>
<!-- sub_Provider_Ollama&#45;&gt;err_contract_schema_drift -->
<g id="edge18" class="edge">
<title>sub_Provider_Ollama&#45;&gt;err_contract_schema_drift</title>
<path fill="none" stroke="black" d="M1798.5,-143.7C1798.5,-135.98 1798.5,-126.71 1798.5,-118.11"/>
<polygon fill="black" stroke="black" points="1802,-118.1 1798.5,-108.1 1795,-118.1 1802,-118.1"/>
</g>
<!-- sub_RAG -->
<g id="node8" class="node">
<title>sub_RAG</title>
<polygon fill="lightblue" stroke="black" points="3562.5,-180 3508.5,-180 3508.5,-144 3562.5,-144 3562.5,-180"/>
<text text-anchor="middle" x="3535.5" y="-158.3" font-family="DejaVu Sans" font-size="14.00">RAG</text>
</g>
<!-- sub_RAG&#45;&gt;err_debug_false_truth -->
<g id="edge9" class="edge">
<title>sub_RAG&#45;&gt;err_debug_false_truth</title>
<path fill="none" stroke="black" d="M3508.43,-156.67C3443.88,-146.36 3278.81,-119.98 3178.63,-103.97"/>
<polygon fill="black" stroke="black" points="3178.97,-100.48 3168.54,-102.35 3177.87,-107.39 3178.97,-100.48"/>
</g>
<!-- err_degraded_mode_failure -->
<g id="node14" class="node">
<title>err_degraded_mode_failure</title>
<polygon fill="lightyellow" stroke="black" points="4116,-108 3937,-108 3937,-72 4116,-72 4116,-108"/>
<text text-anchor="middle" x="4026.5" y="-86.3" font-family="DejaVu Sans" font-size="14.00">degraded_mode_failure</text>
</g>
<!-- sub_RAG&#45;&gt;err_degraded_mode_failure -->
<g id="edge11" class="edge">
<title>sub_RAG&#45;&gt;err_degraded_mode_failure</title>
<path fill="none" stroke="black" d="M3562.6,-157.14C3630.71,-147.43 3811.78,-121.61 3926.52,-105.25"/>
<polygon fill="black" stroke="black" points="3927.31,-108.68 3936.72,-103.8 3926.32,-101.75 3927.31,-108.68"/>
</g>
<!-- err_optional_dependency_missing -->
<g id="node17" class="node">
<title>err_optional_dependency_missing</title>
<polygon fill="lightyellow" stroke="black" points="3777,-108 3552,-108 3552,-72 3777,-72 3777,-108"/>
<text text-anchor="middle" x="3664.5" y="-86.3" font-family="DejaVu Sans" font-size="14.00">optional_dependency_missing</text>
</g>
<!-- sub_RAG&#45;&gt;err_optional_dependency_missing -->
<g id="edge10" class="edge">
<title>sub_RAG&#45;&gt;err_optional_dependency_missing</title>
<path fill="none" stroke="black" d="M3562.54,-146.33C3580.35,-136.66 3604,-123.83 3624.03,-112.96"/>
<polygon fill="black" stroke="black" points="3625.83,-115.97 3632.95,-108.12 3622.49,-109.82 3625.83,-115.97"/>
</g>
<!-- err_rag_silent_failure -->
<g id="node18" class="node">
<title>err_rag_silent_failure</title>
<polygon fill="lightyellow" stroke="black" points="3474.5,-108 3340.5,-108 3340.5,-72 3474.5,-72 3474.5,-108"/>
<text text-anchor="middle" x="3407.5" y="-86.3" font-family="DejaVu Sans" font-size="14.00">rag_silent_failure</text>
</g>
<!-- sub_RAG&#45;&gt;err_rag_silent_failure -->
<g id="edge8" class="edge">
<title>sub_RAG&#45;&gt;err_rag_silent_failure</title>
<path fill="none" stroke="black" d="M3508.35,-146.15C3490.66,-136.48 3467.27,-123.69 3447.47,-112.86"/>
<polygon fill="black" stroke="black" points="3449.11,-109.77 3438.66,-108.04 3445.75,-115.91 3449.11,-109.77"/>
</g>
<!-- sub_Startup_Bootstrap -->
<g id="node9" class="node">
<title>sub_Startup_Bootstrap</title>
<polygon fill="lightblue" stroke="black" points="4232.5,-180 4092.5,-180 4092.5,-144 4232.5,-144 4232.5,-180"/>
<text text-anchor="middle" x="4162.5" y="-158.3" font-family="DejaVu Sans" font-size="14.00">Startup/Bootstrap</text>
</g>
<!-- sub_Startup_Bootstrap&#45;&gt;err_degraded_mode_failure -->
<g id="edge16" class="edge">
<title>sub_Startup_Bootstrap&#45;&gt;err_degraded_mode_failure</title>
<path fill="none" stroke="black" d="M4129.23,-143.88C4111.04,-134.51 4088.31,-122.81 4068.86,-112.8"/>
<polygon fill="black" stroke="black" points="4070.39,-109.65 4059.9,-108.19 4067.19,-115.88 4070.39,-109.65"/>
</g>
<!-- err_startup_ordering -->
<g id="node20" class="node">
<title>err_startup_ordering</title>
<polygon fill="lightyellow" stroke="black" points="4365.5,-108 4233.5,-108 4233.5,-72 4365.5,-72 4365.5,-108"/>
<text text-anchor="middle" x="4299.5" y="-86.3" font-family="DejaVu Sans" font-size="14.00">startup_ordering</text>
</g>
<!-- sub_Startup_Bootstrap&#45;&gt;err_startup_ordering -->
<g id="edge15" class="edge">
<title>sub_Startup_Bootstrap&#45;&gt;err_startup_ordering</title>
<path fill="none" stroke="black" d="M4196.01,-143.88C4214.34,-134.51 4237.24,-122.81 4256.83,-112.8"/>
<polygon fill="black" stroke="black" points="4258.54,-115.86 4265.86,-108.19 4255.36,-109.62 4258.54,-115.86"/>
</g>
<!-- sub_Tools -->
<g id="node10" class="node">
<title>sub_Tools</title>
<polygon fill="lightblue" stroke="black" points="5159.5,-180 5105.5,-180 5105.5,-144 5159.5,-144 5159.5,-180"/>
<text text-anchor="middle" x="5132.5" y="-158.3" font-family="DejaVu Sans" font-size="14.00">Tools</text>
</g>
<!-- err_tool_failure_visibility -->
<g id="node21" class="node">
<title>err_tool_failure_visibility</title>
<polygon fill="lightyellow" stroke="black" points="5210.5,-108 5054.5,-108 5054.5,-72 5210.5,-72 5210.5,-108"/>
<text text-anchor="middle" x="5132.5" y="-86.3" font-family="DejaVu Sans" font-size="14.00">tool_failure_visibility</text>
</g>
<!-- sub_Tools&#45;&gt;err_tool_failure_visibility -->
<g id="edge17" class="edge">
<title>sub_Tools&#45;&gt;err_tool_failure_visibility</title>
<path fill="none" stroke="black" d="M5132.5,-143.7C5132.5,-135.98 5132.5,-126.71 5132.5,-118.11"/>
<polygon fill="black" stroke="black" points="5136,-118.1 5132.5,-108.1 5129,-118.1 5136,-118.1"/>
</g>
<!-- test_async_behavior_test_chatwidget_signal_after_d -->
<g id="node24" class="node">
<title>test_async_behavior_test_chatwidget_signal_after_d</title>
<polygon fill="lightgreen" stroke="black" points="1120.5,-36 736.5,-36 736.5,0 1120.5,0 1120.5,-36"/>
<text text-anchor="middle" x="928.5" y="-14.3" font-family="DejaVu Sans" font-size="14.00">async_behavior/test_chatwidget_signal_after_destroy</text>
</g>
<!-- err_async_race&#45;&gt;test_async_behavior_test_chatwidget_signal_after_d -->
<g id="edge35" class="edge">
<title>err_async_race&#45;&gt;test_async_behavior_test_chatwidget_signal_after_d</title>
<path fill="none" stroke="black" d="M1162.47,-77.28C1119.99,-66.7 1056.65,-50.92 1006.59,-38.45"/>
<polygon fill="black" stroke="black" points="1007.31,-35.03 996.76,-36 1005.62,-41.82 1007.31,-35.03"/>
</g>
<!-- test_async_behavior_test_debug_clear_during_refres -->
<g id="node25" class="node">
<title>test_async_behavior_test_debug_clear_during_refres</title>
<polygon fill="lightgreen" stroke="black" points="1494,-36 1139,-36 1139,0 1494,0 1494,-36"/>
<text text-anchor="middle" x="1316.5" y="-14.3" font-family="DejaVu Sans" font-size="14.00">async_behavior/test_debug_clear_during_refresh</text>
</g>
<!-- err_async_race&#45;&gt;test_async_behavior_test_debug_clear_during_refres -->
<g id="edge36" class="edge">
<title>err_async_race&#45;&gt;test_async_behavior_test_debug_clear_during_refres</title>
<path fill="none" stroke="black" d="M1235.68,-71.88C1249.54,-62.81 1266.74,-51.55 1281.71,-41.76"/>
<polygon fill="black" stroke="black" points="1283.77,-44.59 1290.22,-36.19 1279.94,-38.74 1283.77,-44.59"/>
</g>
<!-- test_failure_modes_test_event_store_failure -->
<g id="node32" class="node">
<title>test_failure_modes_test_event_store_failure</title>
<polygon fill="lightgreen" stroke="black" points="2142,-36 1861,-36 1861,0 2142,0 2142,-36"/>
<text text-anchor="middle" x="2001.5" y="-14.3" font-family="DejaVu Sans" font-size="14.00">failure_modes/test_event_store_failure</text>
</g>
<!-- err_contract_schema_drift&#45;&gt;test_failure_modes_test_event_store_failure -->
<g id="edge25" class="edge">
<title>err_contract_schema_drift&#45;&gt;test_failure_modes_test_event_store_failure</title>
<path fill="none" stroke="black" d="M1847.9,-71.97C1876.39,-62.14 1912.39,-49.73 1942.37,-39.39"/>
<polygon fill="black" stroke="black" points="1943.57,-42.68 1951.88,-36.11 1941.28,-36.06 1943.57,-42.68"/>
</g>
<!-- test_failure_modes_test_llm_chunk_parsing_failure -->
<g id="node33" class="node">
<title>test_failure_modes_test_llm_chunk_parsing_failure</title>
<polygon fill="lightgreen" stroke="black" points="1843,-36 1512,-36 1512,0 1843,0 1843,-36"/>
<text text-anchor="middle" x="1677.5" y="-14.3" font-family="DejaVu Sans" font-size="14.00">failure_modes/test_llm_chunk_parsing_failure</text>
</g>
<!-- err_contract_schema_drift&#45;&gt;test_failure_modes_test_llm_chunk_parsing_failure -->
<g id="edge26" class="edge">
<title>err_contract_schema_drift&#45;&gt;test_failure_modes_test_llm_chunk_parsing_failure</title>
<path fill="none" stroke="black" d="M1768.9,-71.88C1752.93,-62.64 1733.04,-51.13 1715.89,-41.21"/>
<polygon fill="black" stroke="black" points="1717.62,-38.17 1707.21,-36.19 1714.12,-44.23 1717.62,-38.17"/>
</g>
<!-- test_cross_layer_test_debug_view_matches_failure_e -->
<g id="node28" class="node">
<title>test_cross_layer_test_debug_view_matches_failure_e</title>
<polygon fill="lightgreen" stroke="black" points="2932,-36 2549,-36 2549,0 2932,0 2932,-36"/>
<text text-anchor="middle" x="2740.5" y="-14.3" font-family="DejaVu Sans" font-size="14.00">cross_layer/test_debug_view_matches_failure_events</text>
</g>
<!-- err_debug_false_truth&#45;&gt;test_cross_layer_test_debug_view_matches_failure_e -->
<g id="edge23" class="edge">
<title>err_debug_false_truth&#45;&gt;test_cross_layer_test_debug_view_matches_failure_e</title>
<path fill="none" stroke="black" d="M3026.11,-75C2971.97,-64.39 2896.95,-49.68 2837.39,-38"/>
<polygon fill="black" stroke="black" points="2837.7,-34.49 2827.21,-36 2836.35,-41.36 2837.7,-34.49"/>
</g>
<!-- test_failure_modes_test_chroma_unreachable -->
<g id="node31" class="node">
<title>test_failure_modes_test_chroma_unreachable</title>
<polygon fill="lightgreen" stroke="black" points="3245,-36 2950,-36 2950,0 3245,0 3245,-36"/>
<text text-anchor="middle" x="3097.5" y="-14.3" font-family="DejaVu Sans" font-size="14.00">failure_modes/test_chroma_unreachable</text>
</g>
<!-- err_debug_false_truth&#45;&gt;test_failure_modes_test_chroma_unreachable -->
<g id="edge21" class="edge">
<title>err_debug_false_truth&#45;&gt;test_failure_modes_test_chroma_unreachable</title>
<path fill="none" stroke="black" d="M3097.5,-71.7C3097.5,-63.98 3097.5,-54.71 3097.5,-46.11"/>
<polygon fill="black" stroke="black" points="3101,-46.1 3097.5,-36.1 3094,-46.1 3101,-46.1"/>
</g>
<!-- test_failure_modes_test_rag_retrieval_failure -->
<g id="node35" class="node">
<title>test_failure_modes_test_rag_retrieval_failure</title>
<polygon fill="lightgreen" stroke="black" points="3551.5,-36 3263.5,-36 3263.5,0 3551.5,0 3551.5,-36"/>
<text text-anchor="middle" x="3407.5" y="-14.3" font-family="DejaVu Sans" font-size="14.00">failure_modes/test_rag_retrieval_failure</text>
</g>
<!-- err_debug_false_truth&#45;&gt;test_failure_modes_test_rag_retrieval_failure -->
<g id="edge22" class="edge">
<title>err_debug_false_truth&#45;&gt;test_failure_modes_test_rag_retrieval_failure</title>
<path fill="none" stroke="black" d="M3168.62,-72.94C3214.36,-62.61 3274.04,-49.14 3322.31,-38.24"/>
<polygon fill="black" stroke="black" points="3323.13,-41.64 3332.11,-36.02 3321.59,-34.81 3323.13,-41.64"/>
</g>
<!-- test_failure_modes_test_chroma_import_failure -->
<g id="node30" class="node">
<title>test_failure_modes_test_chroma_import_failure</title>
<polygon fill="lightgreen" stroke="black" points="3875,-36 3570,-36 3570,0 3875,0 3875,-36"/>
<text text-anchor="middle" x="3722.5" y="-14.3" font-family="DejaVu Sans" font-size="14.00">failure_modes/test_chroma_import_failure</text>
</g>
<!-- err_degraded_mode_failure&#45;&gt;test_failure_modes_test_chroma_import_failure -->
<g id="edge28" class="edge">
<title>err_degraded_mode_failure&#45;&gt;test_failure_modes_test_chroma_import_failure</title>
<path fill="none" stroke="black" d="M3952.52,-71.97C3908.39,-61.8 3852.23,-48.87 3806.45,-38.33"/>
<polygon fill="black" stroke="black" points="3807.08,-34.88 3796.55,-36.05 3805.51,-41.7 3807.08,-34.88"/>
</g>
<!-- test_startup_test_app_starts_with_optional_depende -->
<g id="node38" class="node">
<title>test_startup_test_app_starts_with_optional_depende</title>
<polygon fill="lightgreen" stroke="black" points="4617.5,-36 4177.5,-36 4177.5,0 4617.5,0 4617.5,-36"/>
<text text-anchor="middle" x="4397.5" y="-14.3" font-family="DejaVu Sans" font-size="14.00">startup/test_app_starts_with_optional_dependencies_missing</text>
</g>
<!-- err_degraded_mode_failure&#45;&gt;test_startup_test_app_starts_with_optional_depende -->
<g id="edge30" class="edge">
<title>err_degraded_mode_failure&#45;&gt;test_startup_test_app_starts_with_optional_depende</title>
<path fill="none" stroke="black" d="M4116.31,-72.05C4170.93,-61.75 4240.8,-48.57 4297.22,-37.92"/>
<polygon fill="black" stroke="black" points="4298.05,-41.33 4307.23,-36.03 4296.76,-34.45 4298.05,-41.33"/>
</g>
<!-- test_startup_test_startup_without_ollama -->
<g id="node39" class="node">
<title>test_startup_test_startup_without_ollama</title>
<polygon fill="lightgreen" stroke="black" points="4159.5,-36 3893.5,-36 3893.5,0 4159.5,0 4159.5,-36"/>
<text text-anchor="middle" x="4026.5" y="-14.3" font-family="DejaVu Sans" font-size="14.00">startup/test_startup_without_ollama</text>
</g>
<!-- err_degraded_mode_failure&#45;&gt;test_startup_test_startup_without_ollama -->
<g id="edge29" class="edge">
<title>err_degraded_mode_failure&#45;&gt;test_startup_test_startup_without_ollama</title>
<path fill="none" stroke="black" d="M4026.5,-71.7C4026.5,-63.98 4026.5,-54.71 4026.5,-46.11"/>
<polygon fill="black" stroke="black" points="4030,-46.1 4026.5,-36.1 4023,-46.1 4030,-46.1"/>
</g>
<!-- err_late_signal_use_after_destroy&#45;&gt;test_async_behavior_test_chatwidget_signal_after_d -->
<g id="edge34" class="edge">
<title>err_late_signal_use_after_destroy&#45;&gt;test_async_behavior_test_chatwidget_signal_after_d</title>
<path fill="none" stroke="black" d="M928.5,-71.7C928.5,-63.98 928.5,-54.71 928.5,-46.11"/>
<polygon fill="black" stroke="black" points="932,-46.1 928.5,-36.1 925,-46.1 932,-46.1"/>
</g>
<!-- test_async_behavior_test_signal_after_widget_destr -->
<g id="node27" class="node">
<title>test_async_behavior_test_signal_after_widget_destr</title>
<polygon fill="lightgreen" stroke="black" points="718.5,-36 364.5,-36 364.5,0 718.5,0 718.5,-36"/>
<text text-anchor="middle" x="541.5" y="-14.3" font-family="DejaVu Sans" font-size="14.00">async_behavior/test_signal_after_widget_destroy</text>
</g>
<!-- err_late_signal_use_after_destroy&#45;&gt;test_async_behavior_test_signal_after_widget_destr -->
<g id="edge33" class="edge">
<title>err_late_signal_use_after_destroy&#45;&gt;test_async_behavior_test_signal_after_widget_destr</title>
<path fill="none" stroke="black" d="M834.32,-71.97C777.32,-61.66 704.55,-48.49 645.81,-37.87"/>
<polygon fill="black" stroke="black" points="646.23,-34.39 635.76,-36.05 644.98,-41.27 646.23,-34.39"/>
</g>
<!-- test_failure_modes_test_metrics_on_failed_chat_or_ -->
<g id="node34" class="node">
<title>test_failure_modes_test_metrics_on_failed_chat_or_</title>
<polygon fill="lightgreen" stroke="black" points="5001,-36 4636,-36 4636,0 5001,0 5001,-36"/>
<text text-anchor="middle" x="4818.5" y="-14.3" font-family="DejaVu Sans" font-size="14.00">failure_modes/test_metrics_on_failed_chat_or_task</text>
</g>
<!-- err_metrics_false_success&#45;&gt;test_failure_modes_test_metrics_on_failed_chat_or_ -->
<g id="edge31" class="edge">
<title>err_metrics_false_success&#45;&gt;test_failure_modes_test_metrics_on_failed_chat_or_</title>
<path fill="none" stroke="black" d="M4818.5,-71.7C4818.5,-63.98 4818.5,-54.71 4818.5,-46.11"/>
<polygon fill="black" stroke="black" points="4822,-46.1 4818.5,-36.1 4815,-46.1 4822,-46.1"/>
</g>
<!-- err_optional_dependency_missing&#45;&gt;test_failure_modes_test_chroma_import_failure -->
<g id="edge27" class="edge">
<title>err_optional_dependency_missing&#45;&gt;test_failure_modes_test_chroma_import_failure</title>
<path fill="none" stroke="black" d="M3678.84,-71.7C3685.79,-63.3 3694.27,-53.07 3701.9,-43.86"/>
<polygon fill="black" stroke="black" points="3704.64,-46.04 3708.33,-36.1 3699.25,-41.57 3704.64,-46.04"/>
</g>
<!-- err_rag_silent_failure&#45;&gt;test_failure_modes_test_chroma_unreachable -->
<g id="edge19" class="edge">
<title>err_rag_silent_failure&#45;&gt;test_failure_modes_test_chroma_unreachable</title>
<path fill="none" stroke="black" d="M3340.23,-73.81C3293.99,-63.37 3232.21,-49.42 3182.55,-38.21"/>
<polygon fill="black" stroke="black" points="3183.32,-34.79 3172.79,-36 3181.78,-41.62 3183.32,-34.79"/>
</g>
<!-- err_rag_silent_failure&#45;&gt;test_failure_modes_test_rag_retrieval_failure -->
<g id="edge20" class="edge">
<title>err_rag_silent_failure&#45;&gt;test_failure_modes_test_rag_retrieval_failure</title>
<path fill="none" stroke="black" d="M3407.5,-71.7C3407.5,-63.98 3407.5,-54.71 3407.5,-46.11"/>
<polygon fill="black" stroke="black" points="3411,-46.1 3407.5,-36.1 3404,-46.1 3411,-46.1"/>
</g>
<!-- test_cross_layer_test_prompt_apply_affects_real_re -->
<g id="node29" class="node">
<title>test_cross_layer_test_prompt_apply_affects_real_re</title>
<polygon fill="lightgreen" stroke="black" points="2531,-36 2160,-36 2160,0 2531,0 2531,-36"/>
<text text-anchor="middle" x="2345.5" y="-14.3" font-family="DejaVu Sans" font-size="14.00">cross_layer/test_prompt_apply_affects_real_request</text>
</g>
<!-- err_request_context_loss&#45;&gt;test_cross_layer_test_prompt_apply_affects_real_re -->
<g id="edge37" class="edge">
<title>err_request_context_loss&#45;&gt;test_cross_layer_test_prompt_apply_affects_real_re</title>
<path fill="none" stroke="black" d="M2254.1,-71.88C2270.07,-62.64 2289.96,-51.13 2307.11,-41.21"/>
<polygon fill="black" stroke="black" points="2308.88,-44.23 2315.79,-36.19 2305.38,-38.17 2308.88,-44.23"/>
</g>
<!-- err_startup_ordering&#45;&gt;test_startup_test_app_starts_with_optional_depende -->
<g id="edge38" class="edge">
<title>err_startup_ordering&#45;&gt;test_startup_test_app_starts_with_optional_depende</title>
<path fill="none" stroke="black" d="M4323.47,-71.88C4336.05,-62.89 4351.63,-51.76 4365.25,-42.03"/>
<polygon fill="black" stroke="black" points="4367.33,-44.85 4373.43,-36.19 4363.26,-39.15 4367.33,-44.85"/>
</g>
<!-- test_failure_modes_test_tool_failure -->
<g id="node36" class="node">
<title>test_failure_modes_test_tool_failure</title>
<polygon fill="lightgreen" stroke="black" points="5246,-36 5019,-36 5019,0 5246,0 5246,-36"/>
<text text-anchor="middle" x="5132.5" y="-14.3" font-family="DejaVu Sans" font-size="14.00">failure_modes/test_tool_failure</text>
</g>
<!-- err_tool_failure_visibility&#45;&gt;test_failure_modes_test_tool_failure -->
<g id="edge24" class="edge">
<title>err_tool_failure_visibility&#45;&gt;test_failure_modes_test_tool_failure</title>
<path fill="none" stroke="black" d="M5132.5,-71.7C5132.5,-63.98 5132.5,-54.71 5132.5,-46.11"/>
<polygon fill="black" stroke="black" points="5136,-46.1 5132.5,-36.1 5129,-46.1 5136,-46.1"/>
</g>
<!-- test_regression_test_agent_delete_removes_from_lis -->
<g id="node37" class="node">
<title>test_regression_test_agent_delete_removes_from_lis</title>
<polygon fill="lightgreen" stroke="black" points="347,-36 0,-36 0,0 347,0 347,-36"/>
<text text-anchor="middle" x="173.5" y="-14.3" font-family="DejaVu Sans" font-size="14.00">regression/test_agent_delete_removes_from_list</text>
</g>
<!-- err_ui_state_drift&#45;&gt;test_regression_test_agent_delete_removes_from_lis -->
<g id="edge39" class="edge">
<title>err_ui_state_drift&#45;&gt;test_regression_test_agent_delete_removes_from_lis</title>
<path fill="none" stroke="black" d="M407.19,-76C363.97,-65.46 302.39,-50.44 253.29,-38.46"/>
<polygon fill="black" stroke="black" points="253.88,-35 243.33,-36.03 252.22,-41.8 253.88,-35"/>
</g>
<!-- err_ui_state_drift__streaming_h_ngt -->
<g id="node23" class="node">
<title>err_ui_state_drift__streaming_h_ngt</title>
<polygon fill="lightyellow" stroke="black" points="5506.5,-180 5270.5,-180 5270.5,-144 5506.5,-144 5506.5,-180"/>
<text text-anchor="middle" x="5388.5" y="-158.3" font-family="DejaVu Sans" font-size="14.00">ui_state_drift (streaming hängt)</text>
</g>
<!-- test_async_behavior_test_shutdown_during_task -->
<g id="node26" class="node">
<title>test_async_behavior_test_shutdown_during_task</title>
<polygon fill="lightgreen" stroke="black" points="5548,-108 5229,-108 5229,-72 5548,-72 5548,-108"/>
<text text-anchor="middle" x="5388.5" y="-86.3" font-family="DejaVu Sans" font-size="14.00">async_behavior/test_shutdown_during_task</text>
</g>
<!-- err_ui_state_drift__streaming_h_ngt&#45;&gt;test_async_behavior_test_shutdown_during_task -->
<g id="edge32" class="edge">
<title>err_ui_state_drift__streaming_h_ngt&#45;&gt;test_async_behavior_test_shutdown_during_task</title>
<path fill="none" stroke="black" d="M5388.5,-143.7C5388.5,-135.98 5388.5,-126.71 5388.5,-118.11"/>
<polygon fill="black" stroke="black" points="5392,-118.1 5388.5,-108.1 5385,-118.1 5392,-118.1"/>
</g>
</g>
</svg>
