<?xml version="1.0" encoding="UTF-8" standalone="no"?>
<!DOCTYPE svg PUBLIC "-//W3C//DTD SVG 1.1//EN"
 "http://www.w3.org/Graphics/SVG/1.1/DTD/svg11.dtd">
<!-- Generated by graphviz version 2.43.0 (0)
 -->
<!-- Title: QA_Dependency Pages: 1 -->
<svg width="746pt" height="454pt"
 viewBox="0.00 0.00 746.15 454.00" xmlns="http://www.w3.org/2000/svg" xmlns:xlink="http://www.w3.org/1999/xlink">
<g id="graph0" class="graph" transform="scale(1 1) rotate(0) translate(4 450)">
<title>QA_Dependency</title>
<polygon fill="white" stroke="transparent" points="-4,4 -4,-450 742.15,-450 742.15,4 -4,4"/>
<!-- Chat -->
<g id="node1" class="node">
<title>Chat</title>
<polygon fill="none" stroke="black" points="248.15,-282 194.15,-282 194.15,-246 248.15,-246 248.15,-282"/>
<text text-anchor="middle" x="221.15" y="-260.3" font-family="DejaVu Sans" font-size="14.00">Chat</text>
</g>
<!-- Agentensystem -->
<g id="node2" class="node">
<title>Agentensystem</title>
<polygon fill="none" stroke="black" points="424.65,-200 299.65,-200 299.65,-164 424.65,-164 424.65,-200"/>
<text text-anchor="middle" x="362.15" y="-178.3" font-family="DejaVu Sans" font-size="14.00">Agentensystem</text>
</g>
<!-- Chat&#45;&gt;Agentensystem -->
<g id="edge3" class="edge">
<title>Chat&#45;&gt;Agentensystem</title>
<path fill="none" stroke="black" d="M248.34,-247.58C269.63,-235.5 299.52,-218.54 323.32,-205.03"/>
<polygon fill="black" stroke="black" points="325.15,-208.02 332.12,-200.04 321.7,-201.93 325.15,-208.02"/>
<text text-anchor="middle" x="333.65" y="-220.8" font-family="DejaVu Sans" font-size="9.00">runtime (high)</text>
</g>
<!-- Prompt_System -->
<g id="node3" class="node">
<title>Prompt_System</title>
<polygon fill="none" stroke="black" points="619.65,-118 496.65,-118 496.65,-82 619.65,-82 619.65,-118"/>
<text text-anchor="middle" x="558.15" y="-96.3" font-family="DejaVu Sans" font-size="14.00">Prompt&#45;System</text>
</g>
<!-- Chat&#45;&gt;Prompt_System -->
<g id="edge4" class="edge">
<title>Chat&#45;&gt;Prompt_System</title>
<path fill="none" stroke="black" d="M248.39,-258.21C278.77,-252.51 329.16,-241.97 371.15,-228 457.26,-199.35 508.51,-221.97 558.15,-146 561.55,-140.8 562.83,-134.5 563,-128.28"/>
<polygon fill="black" stroke="black" points="566.48,-127.86 562.38,-118.09 559.49,-128.28 566.48,-127.86"/>
<text text-anchor="middle" x="578.65" y="-179.8" font-family="DejaVu Sans" font-size="9.00">runtime (high)</text>
</g>
<!-- RAG -->
<g id="node4" class="node">
<title>RAG</title>
<polygon fill="none" stroke="black" points="185.15,-118 131.15,-118 131.15,-82 185.15,-82 185.15,-118"/>
<text text-anchor="middle" x="158.15" y="-96.3" font-family="DejaVu Sans" font-size="14.00">RAG</text>
</g>
<!-- Chat&#45;&gt;RAG -->
<g id="edge2" class="edge">
<title>Chat&#45;&gt;RAG</title>
<path fill="none" stroke="black" d="M216.18,-245.81C208.8,-221.08 194.01,-174.22 177.15,-136 175.88,-133.12 174.46,-130.16 172.99,-127.23"/>
<polygon fill="black" stroke="black" points="175.96,-125.37 168.2,-118.16 169.77,-128.64 175.96,-125.37"/>
<text text-anchor="middle" x="244.65" y="-179.8" font-family="DejaVu Sans" font-size="9.00">runtime (medium)</text>
</g>
<!-- Provider_Ollama -->
<g id="node9" class="node">
<title>Provider_Ollama</title>
<polygon fill="none" stroke="black" points="173.65,-36 46.65,-36 46.65,0 173.65,0 173.65,-36"/>
<text text-anchor="middle" x="110.15" y="-14.3" font-family="DejaVu Sans" font-size="14.00">Provider/Ollama</text>
</g>
<!-- Chat&#45;&gt;Provider_Ollama -->
<g id="edge1" class="edge">
<title>Chat&#45;&gt;Provider_Ollama</title>
<path fill="none" stroke="black" d="M194.1,-248.14C192.44,-247.38 190.79,-246.66 189.15,-246 147.56,-229.16 135.63,-229.09 92.15,-218 56.42,-208.88 34.23,-228.77 11.15,-200 -6.82,-177.59 -0.31,-156.16 20.15,-136 39.68,-116.76 59.7,-137.31 79.15,-118 98.27,-99.03 105.63,-68.44 108.44,-46.28"/>
<polygon fill="black" stroke="black" points="111.94,-46.48 109.49,-36.17 104.98,-45.75 111.94,-46.48"/>
<text text-anchor="middle" x="53.65" y="-138.8" font-family="DejaVu Sans" font-size="9.00">runtime (high)</text>
</g>
<!-- Persistenz_SQLite -->
<g id="node10" class="node">
<title>Persistenz_SQLite</title>
<polygon fill="none" stroke="black" points="503.65,-36 366.65,-36 366.65,0 503.65,0 503.65,-36"/>
<text text-anchor="middle" x="435.15" y="-14.3" font-family="DejaVu Sans" font-size="14.00">Persistenz/SQLite</text>
</g>
<!-- Chat&#45;&gt;Persistenz_SQLite -->
<g id="edge5" class="edge">
<title>Chat&#45;&gt;Persistenz_SQLite</title>
<path fill="none" stroke="black" d="M248.42,-262.68C329.16,-261.15 564.62,-252.2 616.15,-200 661.98,-153.58 673.03,-104.02 631.15,-54 616.06,-35.97 561.63,-27.22 513.96,-22.97"/>
<polygon fill="black" stroke="black" points="514.16,-19.48 503.9,-22.14 513.58,-26.46 514.16,-19.48"/>
<text text-anchor="middle" x="696.65" y="-138.8" font-family="DejaVu Sans" font-size="9.00">persistence (high)</text>
</g>
<!-- Agentensystem&#45;&gt;Prompt_System -->
<g id="edge7" class="edge">
<title>Agentensystem&#45;&gt;Prompt_System</title>
<path fill="none" stroke="black" d="M418.82,-163.97C434.93,-158.67 452.39,-152.5 468.15,-146 484.6,-139.21 502.21,-130.7 517.45,-122.92"/>
<polygon fill="black" stroke="black" points="519.33,-125.89 526.6,-118.18 516.11,-119.67 519.33,-125.89"/>
<text text-anchor="middle" x="522.65" y="-138.8" font-family="DejaVu Sans" font-size="9.00">runtime (high)</text>
</g>
<!-- Agentensystem&#45;&gt;RAG -->
<g id="edge9" class="edge">
<title>Agentensystem&#45;&gt;RAG</title>
<path fill="none" stroke="black" d="M301.69,-163.95C284.83,-158.7 266.62,-152.56 250.15,-146 231.51,-138.58 211.43,-128.95 194.79,-120.51"/>
<polygon fill="black" stroke="black" points="195.93,-117.16 185.44,-115.71 192.73,-123.39 195.93,-117.16"/>
<text text-anchor="middle" x="292.65" y="-138.8" font-family="DejaVu Sans" font-size="9.00">runtime (medium)</text>
</g>
<!-- Tools -->
<g id="node8" class="node">
<title>Tools</title>
<polygon fill="none" stroke="black" points="470.15,-118 416.15,-118 416.15,-82 470.15,-82 470.15,-118"/>
<text text-anchor="middle" x="443.15" y="-96.3" font-family="DejaVu Sans" font-size="14.00">Tools</text>
</g>
<!-- Agentensystem&#45;&gt;Tools -->
<g id="edge8" class="edge">
<title>Agentensystem&#45;&gt;Tools</title>
<path fill="none" stroke="black" d="M367.4,-163.74C370.79,-154.7 375.95,-143.9 383.15,-136 389.85,-128.66 398.45,-122.42 407.03,-117.33"/>
<polygon fill="black" stroke="black" points="408.83,-120.34 415.89,-112.45 405.45,-114.21 408.83,-120.34"/>
<text text-anchor="middle" x="425.65" y="-138.8" font-family="DejaVu Sans" font-size="9.00">runtime (medium)</text>
</g>
<!-- Agentensystem&#45;&gt;Provider_Ollama -->
<g id="edge6" class="edge">
<title>Agentensystem&#45;&gt;Provider_Ollama</title>
<path fill="none" stroke="black" d="M356.17,-163.95C344.05,-129.42 317.7,-54.46 317.15,-54 297.21,-37.24 234.98,-28.28 183.91,-23.64"/>
<polygon fill="black" stroke="black" points="184.13,-20.15 173.87,-22.77 183.53,-27.12 184.13,-20.15"/>
<text text-anchor="middle" x="373.65" y="-97.8" font-family="DejaVu Sans" font-size="9.00">runtime (high)</text>
</g>
<!-- Prompt_System&#45;&gt;Persistenz_SQLite -->
<g id="edge12" class="edge">
<title>Prompt_System&#45;&gt;Persistenz_SQLite</title>
<path fill="none" stroke="black" d="M553.24,-81.59C549.81,-72.28 544.35,-61.26 536.15,-54 529.32,-47.95 521.38,-42.93 513.01,-38.77"/>
<polygon fill="black" stroke="black" points="514.35,-35.53 503.8,-34.58 511.46,-41.9 514.35,-35.53"/>
<text text-anchor="middle" x="585.65" y="-56.8" font-family="DejaVu Sans" font-size="9.00">persistence (high)</text>
</g>
<!-- RAG&#45;&gt;Provider_Ollama -->
<g id="edge10" class="edge">
<title>RAG&#45;&gt;Provider_Ollama</title>
<path fill="none" stroke="black" d="M140.71,-81.83C135.88,-76.44 130.93,-70.25 127.15,-64 123.83,-58.5 120.98,-52.25 118.6,-46.19"/>
<polygon fill="black" stroke="black" points="121.74,-44.57 115.06,-36.34 115.15,-46.94 121.74,-44.57"/>
<text text-anchor="middle" x="160.65" y="-56.8" font-family="DejaVu Sans" font-size="9.00">runtime (high)</text>
</g>
<!-- RAG&#45;&gt;Persistenz_SQLite -->
<g id="edge11" class="edge">
<title>RAG&#45;&gt;Persistenz_SQLite</title>
<path fill="none" stroke="black" d="M184.78,-81.95C200.83,-72.4 222,-61.03 242.15,-54 278.59,-41.29 320.58,-32.98 356.07,-27.65"/>
<polygon fill="black" stroke="black" points="356.99,-31.06 366.38,-26.16 355.99,-24.13 356.99,-31.06"/>
<text text-anchor="middle" x="292.15" y="-56.8" font-family="DejaVu Sans" font-size="9.00">persistence (medium)</text>
</g>
<!-- Debug_EventBus -->
<g id="node5" class="node">
<title>Debug_EventBus</title>
<polygon fill="none" stroke="black" points="161.65,-364 28.65,-364 28.65,-328 161.65,-328 161.65,-364"/>
<text text-anchor="middle" x="95.15" y="-342.3" font-family="DejaVu Sans" font-size="14.00">Debug/EventBus</text>
</g>
<!-- Debug_EventBus&#45;&gt;Chat -->
<g id="edge17" class="edge">
<title>Debug_EventBus&#45;&gt;Chat</title>
<path fill="none" stroke="black" d="M102.62,-327.99C107.53,-318.57 114.78,-307.32 124.15,-300 143.76,-284.69 153.77,-290.48 177.15,-282 179.51,-281.14 181.93,-280.25 184.37,-279.34"/>
<polygon fill="black" stroke="black" points="185.64,-282.6 193.76,-275.79 183.17,-276.05 185.64,-282.6"/>
<text text-anchor="middle" x="165.65" y="-302.8" font-family="DejaVu Sans" font-size="9.00">observability (low)</text>
</g>
<!-- Debug_EventBus&#45;&gt;Agentensystem -->
<g id="edge18" class="edge">
<title>Debug_EventBus&#45;&gt;Agentensystem</title>
<path fill="none" stroke="black" d="M90.81,-327.71C86.48,-305.97 82.91,-268.76 102.15,-246 102.54,-245.54 212.44,-219.02 289.21,-200.54"/>
<polygon fill="black" stroke="black" points="290.44,-203.85 299.34,-198.1 288.8,-197.04 290.44,-203.85"/>
<text text-anchor="middle" x="143.65" y="-261.8" font-family="DejaVu Sans" font-size="9.00">observability (low)</text>
</g>
<!-- Debug_EventBus&#45;&gt;RAG -->
<g id="edge19" class="edge">
<title>Debug_EventBus&#45;&gt;RAG</title>
<path fill="none" stroke="black" d="M75.98,-327.91C41.13,-294.73 -25.75,-219.96 11.15,-164 17.64,-154.16 80.25,-129.63 121.64,-114.25"/>
<polygon fill="black" stroke="black" points="122.98,-117.49 131.15,-110.74 120.55,-110.92 122.98,-117.49"/>
<text text-anchor="middle" x="46.65" y="-220.8" font-family="DejaVu Sans" font-size="9.00">observability (low)</text>
</g>
<!-- Metrics -->
<g id="node6" class="node">
<title>Metrics</title>
<polygon fill="none" stroke="black" points="191.65,-446 124.65,-446 124.65,-410 191.65,-410 191.65,-446"/>
<text text-anchor="middle" x="158.15" y="-424.3" font-family="DejaVu Sans" font-size="14.00">Metrics</text>
</g>
<!-- Metrics&#45;&gt;Chat -->
<g id="edge21" class="edge">
<title>Metrics&#45;&gt;Chat</title>
<path fill="none" stroke="black" d="M190.3,-409.97C196.87,-405.03 203.03,-399.03 207.15,-392 225.08,-361.42 226.08,-319.54 224.3,-292.37"/>
<polygon fill="black" stroke="black" points="227.79,-292.07 223.48,-282.4 220.81,-292.65 227.79,-292.07"/>
<text text-anchor="middle" x="266.65" y="-343.8" font-family="DejaVu Sans" font-size="9.00">observability (low)</text>
</g>
<!-- Metrics&#45;&gt;Debug_EventBus -->
<g id="edge20" class="edge">
<title>Metrics&#45;&gt;Debug_EventBus</title>
<path fill="none" stroke="black" d="M124.52,-412.99C115.58,-407.69 106.85,-400.76 101.15,-392 97.74,-386.75 95.87,-380.43 94.91,-374.2"/>
<polygon fill="black" stroke="black" points="98.38,-373.69 94.04,-364.02 91.4,-374.28 98.38,-373.69"/>
<text text-anchor="middle" x="154.15" y="-384.8" font-family="DejaVu Sans" font-size="9.00">observability (medium)</text>
</g>
<!-- Startup_Bootstrap -->
<g id="node7" class="node">
<title>Startup_Bootstrap</title>
<polygon fill="none" stroke="black" points="160.15,-200 20.15,-200 20.15,-164 160.15,-164 160.15,-200"/>
<text text-anchor="middle" x="90.15" y="-178.3" font-family="DejaVu Sans" font-size="14.00">Startup/Bootstrap</text>
</g>
<!-- Startup_Bootstrap&#45;&gt;RAG -->
<g id="edge15" class="edge">
<title>Startup_Bootstrap&#45;&gt;RAG</title>
<path fill="none" stroke="black" d="M88.46,-163.92C88.41,-154.93 89.75,-144.11 95.15,-136 101.57,-126.35 111.6,-119.1 121.78,-113.78"/>
<polygon fill="black" stroke="black" points="123.5,-116.84 131.07,-109.42 120.53,-110.5 123.5,-116.84"/>
<text text-anchor="middle" x="136.15" y="-138.8" font-family="DejaVu Sans" font-size="9.00">startup (medium)</text>
</g>
<!-- Startup_Bootstrap&#45;&gt;Provider_Ollama -->
<g id="edge14" class="edge">
<title>Startup_Bootstrap&#45;&gt;Provider_Ollama</title>
<path fill="none" stroke="black" d="M77.54,-163.72C64.68,-143.87 47.95,-110.39 58.15,-82 63.32,-67.61 73.36,-54.16 83.26,-43.42"/>
<polygon fill="black" stroke="black" points="85.91,-45.72 90.36,-36.1 80.88,-40.84 85.91,-45.72"/>
<text text-anchor="middle" x="90.15" y="-97.8" font-family="DejaVu Sans" font-size="9.00">startup (high)</text>
</g>
<!-- Startup_Bootstrap&#45;&gt;Persistenz_SQLite -->
<g id="edge16" class="edge">
<title>Startup_Bootstrap&#45;&gt;Persistenz_SQLite</title>
<path fill="none" stroke="black" d="M142.94,-163.91C155.81,-158.88 169.28,-152.86 181.15,-146 220.28,-123.39 219.43,-101.59 260.15,-82 293.77,-65.82 306.89,-76.21 342.15,-64 360.15,-57.77 379.21,-48.97 395.36,-40.8"/>
<polygon fill="black" stroke="black" points="397.22,-43.78 404.5,-36.09 394.01,-37.56 397.22,-43.78"/>
<text text-anchor="middle" x="292.15" y="-97.8" font-family="DejaVu Sans" font-size="9.00">startup (high)</text>
</g>
<!-- Tools&#45;&gt;Persistenz_SQLite -->
<g id="edge13" class="edge">
<title>Tools&#45;&gt;Persistenz_SQLite</title>
<path fill="none" stroke="black" d="M439.06,-81.65C437.9,-76.05 436.79,-69.79 436.15,-64 435.52,-58.27 435.17,-52.11 434.99,-46.24"/>
<polygon fill="black" stroke="black" points="438.49,-46.08 434.83,-36.14 431.49,-46.2 438.49,-46.08"/>
<text text-anchor="middle" x="486.15" y="-56.8" font-family="DejaVu Sans" font-size="9.00">persistence (medium)</text>
</g>
</g>
</svg>
