<?xml version="1.0" encoding="UTF-8" standalone="no"?>
<!DOCTYPE svg PUBLIC "-//W3C//DTD SVG 1.1//EN"
 "http://www.w3.org/Graphics/SVG/1.1/DTD/svg11.dtd">
<!-- Generated by graphviz version 2.43.0 (0)
 -->
<!-- Title: Architecture Pages: 1 -->
<svg width="1447pt" height="484pt"
 viewBox="0.00 0.00 1447.00 484.00" xmlns="http://www.w3.org/2000/svg" xmlns:xlink="http://www.w3.org/1999/xlink">
<g id="graph0" class="graph" transform="scale(1 1) rotate(0) translate(4 480)">
<title>Architecture</title>
<polygon fill="white" stroke="transparent" points="-4,4 -4,-480 1443,-480 1443,4 -4,4"/>
<g id="clust1" class="cluster">
<title>cluster_layers</title>
<polygon fill="#f8f9fa" stroke="black" stroke-width="2" points="826,-8 826,-361 1004,-361 1004,-8 826,-8"/>
<text text-anchor="middle" x="915" y="-345.8" font-family="Helvetica,sans-Serif" font-size="14.00">Hauptlayer</text>
</g>
<g id="clust2" class="cluster">
<title>cluster_domains</title>
<polygon fill="#f1f3f5" stroke="black" points="90,-286 90,-361 818,-361 818,-286 90,-286"/>
<text text-anchor="middle" x="454" y="-345.8" font-family="Helvetica,sans-Serif" font-size="14.00">Domänen</text>
</g>
<g id="clust3" class="cluster">
<title>cluster_entrypoints</title>
<polygon fill="#e7f5ff" stroke="black" points="684,-393 684,-468 1407,-468 1407,-393 684,-393"/>
<text text-anchor="middle" x="1045.5" y="-452.8" font-family="Helvetica,sans-Serif" font-size="14.00">Entrypoints</text>
</g>
<g id="clust4" class="cluster">
<title>cluster_registries</title>
<polygon fill="#fff3bf" stroke="black" points="8,-393 8,-468 664,-468 664,-393 8,-393"/>
<text text-anchor="middle" x="336" y="-452.8" font-family="Helvetica,sans-Serif" font-size="14.00">Registries</text>
</g>
<g id="clust5" class="cluster">
<title>cluster_governance</title>
<polygon fill="#d3f9d8" stroke="black" points="1018,-98 1018,-173 1238,-173 1238,-98 1018,-98"/>
<text text-anchor="middle" x="1128" y="-157.8" font-family="Helvetica,sans-Serif" font-size="14.00">Policies / Guards / Drift Radar</text>
</g>
<g id="clust6" class="cluster">
<title>cluster_legacy</title>
<polygon fill="#ffe0e0" stroke="black" points="1179,-286 1179,-361 1431,-361 1431,-286 1179,-286"/>
<text text-anchor="middle" x="1305" y="-345.8" font-family="Helvetica,sans-Serif" font-size="14.00">Legacy / Transitional</text>
</g>
<!-- layer_GUI -->
<g id="node1" class="node">
<title>layer_GUI</title>
<polygon fill="#e9ecef" stroke="black" points="903,-330 847,-330 847,-294 903,-294 903,-330"/>
<text text-anchor="middle" x="875" y="-315" font-family="Helvetica,sans-Serif" font-size="10.00">GUI</text>
<text text-anchor="middle" x="875" y="-304" font-family="Helvetica,sans-Serif" font-size="10.00">app/gui/</text>
</g>
<!-- layer_Services -->
<g id="node2" class="node">
<title>layer_Services</title>
<polygon fill="#e9ecef" stroke="black" points="915.5,-249 834.5,-249 834.5,-213 915.5,-213 915.5,-249"/>
<text text-anchor="middle" x="875" y="-234" font-family="Helvetica,sans-Serif" font-size="10.00">Services</text>
<text text-anchor="middle" x="875" y="-223" font-family="Helvetica,sans-Serif" font-size="10.00">app/services/</text>
</g>
<!-- layer_GUI&#45;&gt;layer_Services -->
<g id="edge6" class="edge">
<title>layer_GUI&#45;&gt;layer_Services</title>
<path fill="none" stroke="black" d="M875,-293.62C875,-293.62 875,-259.03 875,-259.03"/>
<polygon fill="black" stroke="black" points="878.5,-259.03 875,-249.03 871.5,-259.03 878.5,-259.03"/>
</g>
<!-- layer_Core -->
<g id="node4" class="node">
<title>layer_Core</title>
<polygon fill="#e9ecef" stroke="black" points="896,-52 834,-52 834,-16 896,-16 896,-52"/>
<text text-anchor="middle" x="865" y="-37" font-family="Helvetica,sans-Serif" font-size="10.00">Core</text>
<text text-anchor="middle" x="865" y="-26" font-family="Helvetica,sans-Serif" font-size="10.00">app/core/</text>
</g>
<!-- layer_GUI&#45;&gt;layer_Core -->
<g id="edge7" class="edge">
<title>layer_GUI&#45;&gt;layer_Core</title>
<path fill="none" stroke="black" d="M846.83,-318C832.47,-318 818,-318 818,-318 818,-318 818,-20 818,-20 818,-20 823.91,-20 823.91,-20"/>
<polygon fill="black" stroke="black" points="823.91,-23.5 833.91,-20 823.91,-16.5 823.91,-23.5"/>
</g>
<!-- layer_Providers -->
<g id="node3" class="node">
<title>layer_Providers</title>
<polygon fill="#e9ecef" stroke="black" points="920,-142 834,-142 834,-106 920,-106 920,-142"/>
<text text-anchor="middle" x="877" y="-127" font-family="Helvetica,sans-Serif" font-size="10.00">Providers</text>
<text text-anchor="middle" x="877" y="-116" font-family="Helvetica,sans-Serif" font-size="10.00">app/providers/</text>
</g>
<!-- layer_Services&#45;&gt;layer_Providers -->
<g id="edge8" class="edge">
<title>layer_Services&#45;&gt;layer_Providers</title>
<path fill="none" stroke="black" d="M875,-212.85C875,-212.85 875,-152.24 875,-152.24"/>
<polygon fill="black" stroke="black" points="878.5,-152.24 875,-142.24 871.5,-152.24 878.5,-152.24"/>
</g>
<!-- layer_Services&#45;&gt;layer_Core -->
<g id="edge9" class="edge">
<title>layer_Services&#45;&gt;layer_Core</title>
<path fill="none" stroke="black" d="M834.09,-220C829.26,-220 826,-220 826,-220 826,-220 826,-25 826,-25 826,-25 826.79,-25 826.79,-25"/>
<polygon fill="black" stroke="black" points="823.89,-28.5 833.89,-25 823.89,-21.5 823.89,-28.5"/>
</g>
<!-- layer_Providers&#45;&gt;layer_Core -->
<g id="edge10" class="edge">
<title>layer_Providers&#45;&gt;layer_Core</title>
<path fill="none" stroke="black" d="M865,-105.79C865,-105.79 865,-62.19 865,-62.19"/>
<polygon fill="black" stroke="black" points="868.5,-62.19 865,-52.19 861.5,-62.19 868.5,-62.19"/>
</g>
<!-- domain_agents -->
<g id="node5" class="node">
<title>domain_agents</title>
<ellipse fill="#dee2e6" stroke="black" cx="691" cy="-312" rx="29.37" ry="18"/>
<text text-anchor="middle" x="691" y="-309.5" font-family="Helvetica,sans-Serif" font-size="10.00">agents</text>
</g>
<!-- domain_agents&#45;&gt;layer_Services -->
<g id="edge11" class="edge">
<title>domain_agents&#45;&gt;layer_Services</title>
<path fill="none" stroke="black" d="M691,-293.72C691,-272.68 691,-241 691,-241 691,-241 824.16,-241 824.16,-241"/>
<polygon fill="black" stroke="black" points="824.16,-244.5 834.16,-241 824.16,-237.5 824.16,-244.5"/>
</g>
<!-- domain_rag -->
<g id="node6" class="node">
<title>domain_rag</title>
<ellipse fill="#dee2e6" stroke="black" cx="783" cy="-312" rx="27" ry="18"/>
<text text-anchor="middle" x="783" y="-309.5" font-family="Helvetica,sans-Serif" font-size="10.00">rag</text>
</g>
<!-- domain_rag&#45;&gt;layer_Services -->
<g id="edge12" class="edge">
<title>domain_rag&#45;&gt;layer_Services</title>
<path fill="none" stroke="black" d="M808.5,-306C823.97,-306 840.75,-306 840.75,-306 840.75,-306 840.75,-259.16 840.75,-259.16"/>
<polygon fill="black" stroke="black" points="844.25,-259.16 840.75,-249.16 837.25,-259.16 844.25,-259.16"/>
</g>
<!-- domain_tools -->
<g id="node7" class="node">
<title>domain_tools</title>
<ellipse fill="#dee2e6" stroke="black" cx="215" cy="-312" rx="27" ry="18"/>
<text text-anchor="middle" x="215" y="-309.5" font-family="Helvetica,sans-Serif" font-size="10.00">tools</text>
</g>
<!-- domain_tools&#45;&gt;layer_Core -->
<g id="edge17" class="edge">
<title>domain_tools&#45;&gt;layer_Core</title>
<path fill="none" stroke="black" stroke-dasharray="1,5" d="M215,-293.76C215,-231.91 215,-34 215,-34 215,-34 823.65,-34 823.65,-34"/>
<polygon fill="black" stroke="black" points="823.65,-37.5 833.65,-34 823.65,-30.5 823.65,-37.5"/>
<text text-anchor="middle" x="249" y="-183.8" font-family="Helvetica,sans-Serif" font-size="9.00">utility</text>
</g>
<!-- domain_debug -->
<g id="node8" class="node">
<title>domain_debug</title>
<ellipse fill="#dee2e6" stroke="black" cx="306" cy="-312" rx="27.84" ry="18"/>
<text text-anchor="middle" x="306" y="-309.5" font-family="Helvetica,sans-Serif" font-size="10.00">debug</text>
</g>
<!-- domain_debug&#45;&gt;layer_Core -->
<g id="edge15" class="edge">
<title>domain_debug&#45;&gt;layer_Core</title>
<path fill="none" stroke="black" stroke-dasharray="1,5" d="M306,-293.93C306,-233.62 306,-43 306,-43 306,-43 823.75,-43 823.75,-43"/>
<polygon fill="black" stroke="black" points="823.75,-46.5 833.75,-43 823.75,-39.5 823.75,-46.5"/>
<text text-anchor="middle" x="347" y="-183.8" font-family="Helvetica,sans-Serif" font-size="9.00">observability</text>
</g>
<!-- domain_metrics -->
<g id="node9" class="node">
<title>domain_metrics</title>
<ellipse fill="#dee2e6" stroke="black" cx="401" cy="-312" rx="31.4" ry="18"/>
<text text-anchor="middle" x="401" y="-309.5" font-family="Helvetica,sans-Serif" font-size="10.00">metrics</text>
</g>
<!-- domain_metrics&#45;&gt;layer_Core -->
<g id="edge16" class="edge">
<title>domain_metrics&#45;&gt;layer_Core</title>
<path fill="none" stroke="black" stroke-dasharray="1,5" d="M401,-293.79C401,-233.91 401,-47 401,-47 401,-47 823.84,-47 823.84,-47"/>
<polygon fill="black" stroke="black" points="823.84,-50.5 833.84,-47 823.84,-43.5 823.84,-50.5"/>
<text text-anchor="middle" x="469" y="-183.8" font-family="Helvetica,sans-Serif" font-size="9.00">observability</text>
</g>
<!-- domain_qa -->
<g id="node10" class="node">
<title>domain_qa</title>
<ellipse fill="#dee2e6" stroke="black" cx="495" cy="-312" rx="27" ry="18"/>
<text text-anchor="middle" x="495" y="-309.5" font-family="Helvetica,sans-Serif" font-size="10.00">qa</text>
</g>
<!-- domain_qa&#45;&gt;layer_Services -->
<g id="edge14" class="edge">
<title>domain_qa&#45;&gt;layer_Services</title>
<path fill="none" stroke="black" d="M495,-293.97C495,-269.02 495,-227 495,-227 495,-227 824.33,-227 824.33,-227"/>
<polygon fill="black" stroke="black" points="824.33,-230.5 834.33,-227 824.33,-223.5 824.33,-230.5"/>
</g>
<!-- domain_prompts -->
<g id="node11" class="node">
<title>domain_prompts</title>
<ellipse fill="#dee2e6" stroke="black" cx="592" cy="-312" rx="33.61" ry="18"/>
<text text-anchor="middle" x="592" y="-309.5" font-family="Helvetica,sans-Serif" font-size="10.00">prompts</text>
</g>
<!-- domain_prompts&#45;&gt;layer_Services -->
<g id="edge13" class="edge">
<title>domain_prompts&#45;&gt;layer_Services</title>
<path fill="none" stroke="black" d="M592,-293.91C592,-270.87 592,-234 592,-234 592,-234 824.45,-234 824.45,-234"/>
<polygon fill="black" stroke="black" points="824.45,-237.5 834.45,-234 824.45,-230.5 824.45,-237.5"/>
</g>
<!-- domain_utils -->
<g id="node12" class="node">
<title>domain_utils</title>
<ellipse fill="#dee2e6" stroke="black" cx="125" cy="-312" rx="27" ry="18"/>
<text text-anchor="middle" x="125" y="-309.5" font-family="Helvetica,sans-Serif" font-size="10.00">utils</text>
</g>
<!-- ep_app___main___py -->
<g id="node13" class="node">
<title>ep_app___main___py</title>
<polygon fill="none" stroke="black" points="692.37,-413.44 731,-401 769.63,-413.44 769.59,-433.56 692.41,-433.56 692.37,-413.44"/>
<text text-anchor="middle" x="731" y="-416.5" font-family="Helvetica,sans-Serif" font-size="10.00">&#45;m_app</text>
</g>
<!-- ep_app___main___py&#45;&gt;layer_GUI -->
<g id="edge1" class="edge">
<title>ep_app___main___py&#45;&gt;layer_GUI</title>
<path fill="none" stroke="black" d="M762.78,-411.01C762.78,-401.25 762.78,-386 762.78,-386 762.78,-386 880.6,-386 880.6,-386 880.6,-386 880.6,-340.29 880.6,-340.29"/>
<polygon fill="black" stroke="black" points="884.1,-340.29 880.6,-330.29 877.1,-340.29 884.1,-340.29"/>
<text text-anchor="middle" x="793" y="-371.8" font-family="Helvetica,sans-Serif" font-size="9.00">bootstrap</text>
</g>
<!-- ep_run_gui_shell_py -->
<g id="node14" class="node">
<title>ep_run_gui_shell_py</title>
<polygon fill="none" stroke="black" points="805.3,-413.44 875,-401 944.7,-413.44 944.64,-433.56 805.36,-433.56 805.3,-413.44"/>
<text text-anchor="middle" x="875" y="-416.5" font-family="Helvetica,sans-Serif" font-size="10.00">run_gui_shell.py</text>
</g>
<!-- ep_run_gui_shell_py&#45;&gt;layer_GUI -->
<g id="edge2" class="edge">
<title>ep_run_gui_shell_py&#45;&gt;layer_GUI</title>
<path fill="none" stroke="black" d="M891.8,-403.67C891.8,-403.67 891.8,-340.17 891.8,-340.17"/>
<polygon fill="black" stroke="black" points="895.3,-340.17 891.8,-330.17 888.3,-340.17 895.3,-340.17"/>
<text text-anchor="middle" x="897" y="-371.8" font-family="Helvetica,sans-Serif" font-size="9.00">bootstrap</text>
</g>
<!-- ep_main_py -->
<g id="node15" class="node">
<title>ep_main_py</title>
<polygon fill="none" stroke="black" points="981,-413.44 1022,-401 1063,-413.44 1062.96,-433.56 981.04,-433.56 981,-413.44"/>
<text text-anchor="middle" x="1022" y="-416.5" font-family="Helvetica,sans-Serif" font-size="10.00">main.py</text>
</g>
<!-- ep_main_py&#45;&gt;layer_GUI -->
<g id="edge3" class="edge">
<title>ep_main_py&#45;&gt;layer_GUI</title>
<path fill="none" stroke="black" d="M1006.88,-405.38C1006.88,-377.81 1006.88,-318 1006.88,-318 1006.88,-318 913.29,-318 913.29,-318"/>
<polygon fill="black" stroke="black" points="913.29,-314.5 903.29,-318 913.29,-321.5 913.29,-314.5"/>
<text text-anchor="middle" x="1013" y="-371.8" font-family="Helvetica,sans-Serif" font-size="9.00">bootstrap</text>
</g>
<!-- ep_start_sh -->
<g id="node16" class="node">
<title>ep_start_sh</title>
<polygon fill="none" stroke="black" points="1098.37,-413.44 1137,-401 1175.63,-413.44 1175.59,-433.56 1098.41,-433.56 1098.37,-413.44"/>
<text text-anchor="middle" x="1137" y="-416.5" font-family="Helvetica,sans-Serif" font-size="10.00">start.sh</text>
</g>
<!-- ep_start_sh&#45;&gt;layer_GUI -->
<g id="edge4" class="edge">
<title>ep_start_sh&#45;&gt;layer_GUI</title>
<path fill="none" stroke="black" d="M1127.97,-403.76C1127.97,-372.92 1127.97,-306 1127.97,-306 1127.97,-306 913.04,-306 913.04,-306"/>
<polygon fill="black" stroke="black" points="913.04,-302.5 903.04,-306 913.04,-309.5 913.04,-302.5"/>
<text text-anchor="middle" x="1144" y="-371.8" font-family="Helvetica,sans-Serif" font-size="9.00">bootstrap</text>
</g>
<!-- ep_legacy_archive_run_legacy_gui_py -->
<g id="node17" class="node">
<title>ep_legacy_archive_run_legacy_gui_py</title>
<polygon fill="none" stroke="black" points="1211.27,-413.44 1305,-401 1398.73,-413.44 1398.64,-433.56 1211.36,-433.56 1211.27,-413.44"/>
<text text-anchor="middle" x="1305" y="-416.5" font-family="Helvetica,sans-Serif" font-size="10.00">archive/run_legacy_gui</text>
</g>
<!-- legacy_block -->
<g id="node24" class="node">
<title>legacy_block</title>
<polygon fill="none" stroke="black" stroke-dasharray="5,2" points="1423,-330 1187,-330 1187,-294 1423,-294 1423,-330"/>
<text text-anchor="middle" x="1305" y="-309.5" font-family="Helvetica,sans-Serif" font-size="10.00">app.main + critic.py, db.py, ollama_client.py</text>
</g>
<!-- ep_legacy_archive_run_legacy_gui_py&#45;&gt;legacy_block -->
<g id="edge5" class="edge">
<title>ep_legacy_archive_run_legacy_gui_py&#45;&gt;legacy_block</title>
<path fill="none" stroke="#c92a2a" stroke-dasharray="5,2" d="M1305,-400.85C1305,-400.85 1305,-340.24 1305,-340.24"/>
<polygon fill="#c92a2a" stroke="#c92a2a" points="1308.5,-340.24 1305,-330.24 1301.5,-340.24 1308.5,-340.24"/>
</g>
<!-- reg_Model_Registry -->
<g id="node18" class="node">
<title>reg_Model_Registry</title>
<polygon fill="none" stroke="black" points="106,-437 16,-437 16,-433 12,-433 12,-429 16,-429 16,-409 12,-409 12,-405 16,-405 16,-401 106,-401 106,-437"/>
<polyline fill="none" stroke="black" points="16,-433 20,-433 20,-429 16,-429 "/>
<polyline fill="none" stroke="black" points="16,-409 20,-409 20,-405 16,-405 "/>
<text text-anchor="middle" x="61" y="-416.5" font-family="Helvetica,sans-Serif" font-size="10.00">Model Registry</text>
</g>
<!-- reg_Model_Registry&#45;&gt;layer_Core -->
<g id="edge18" class="edge">
<title>reg_Model_Registry&#45;&gt;layer_Core</title>
<path fill="none" stroke="black" d="M57,-400.97C57,-324.27 57,-29 57,-29 57,-29 823.82,-29 823.82,-29"/>
<polygon fill="black" stroke="black" points="823.82,-32.5 833.82,-29 823.82,-25.5 823.82,-32.5"/>
</g>
<!-- reg_Navigation_Registry -->
<g id="node19" class="node">
<title>reg_Navigation_Registry</title>
<polygon fill="none" stroke="black" points="255.5,-437 142.5,-437 142.5,-433 138.5,-433 138.5,-429 142.5,-429 142.5,-409 138.5,-409 138.5,-405 142.5,-405 142.5,-401 255.5,-401 255.5,-437"/>
<polyline fill="none" stroke="black" points="142.5,-433 146.5,-433 146.5,-429 142.5,-429 "/>
<polyline fill="none" stroke="black" points="142.5,-409 146.5,-409 146.5,-405 142.5,-405 "/>
<text text-anchor="middle" x="199" y="-416.5" font-family="Helvetica,sans-Serif" font-size="10.00">Navigation Registry</text>
</g>
<!-- reg_Navigation_Registry&#45;&gt;layer_Core -->
<g id="edge19" class="edge">
<title>reg_Navigation_Registry&#45;&gt;layer_Core</title>
<path fill="none" stroke="black" d="M248.75,-400.88C248.75,-325.16 248.75,-38 248.75,-38 248.75,-38 823.59,-38 823.59,-38"/>
<polygon fill="black" stroke="black" points="823.59,-41.5 833.59,-38 823.59,-34.5 823.59,-41.5"/>
</g>
<!-- reg_Screen_Registry -->
<g id="node20" class="node">
<title>reg_Screen_Registry</title>
<polygon fill="none" stroke="black" points="509.5,-437 416.5,-437 416.5,-433 412.5,-433 412.5,-429 416.5,-429 416.5,-409 412.5,-409 412.5,-405 416.5,-405 416.5,-401 509.5,-401 509.5,-437"/>
<polyline fill="none" stroke="black" points="416.5,-433 420.5,-433 420.5,-429 416.5,-429 "/>
<polyline fill="none" stroke="black" points="416.5,-409 420.5,-409 420.5,-405 416.5,-405 "/>
<text text-anchor="middle" x="463" y="-416.5" font-family="Helvetica,sans-Serif" font-size="10.00">Screen Registry</text>
</g>
<!-- reg_Screen_Registry&#45;&gt;layer_GUI -->
<g id="edge20" class="edge">
<title>reg_Screen_Registry&#45;&gt;layer_GUI</title>
<path fill="none" stroke="black" d="M488.75,-400.7C488.75,-382.73 488.75,-358 488.75,-358 488.75,-358 858.2,-358 858.2,-358 858.2,-358 858.2,-340.18 858.2,-340.18"/>
<polygon fill="black" stroke="black" points="861.7,-340.18 858.2,-330.18 854.7,-340.18 861.7,-340.18"/>
</g>
<!-- reg_Command_Registry -->
<g id="node21" class="node">
<title>reg_Command_Registry</title>
<polygon fill="none" stroke="black" points="656,-437 546,-437 546,-433 542,-433 542,-429 546,-429 546,-409 542,-409 542,-405 546,-405 546,-401 656,-401 656,-437"/>
<polyline fill="none" stroke="black" points="546,-433 550,-433 550,-429 546,-429 "/>
<polyline fill="none" stroke="black" points="546,-409 550,-409 550,-405 546,-405 "/>
<text text-anchor="middle" x="601" y="-416.5" font-family="Helvetica,sans-Serif" font-size="10.00">Command Registry</text>
</g>
<!-- reg_Command_Registry&#45;&gt;layer_GUI -->
<g id="edge21" class="edge">
<title>reg_Command_Registry&#45;&gt;layer_GUI</title>
<path fill="none" stroke="black" d="M640.78,-400.96C640.78,-387.71 640.78,-372 640.78,-372 640.78,-372 869.4,-372 869.4,-372 869.4,-372 869.4,-340 869.4,-340"/>
<polygon fill="black" stroke="black" points="872.9,-340 869.4,-330 865.9,-340 872.9,-340"/>
</g>
<!-- reg_Agent_Registry -->
<g id="node22" class="node">
<title>reg_Agent_Registry</title>
<polygon fill="none" stroke="black" points="380.5,-437 291.5,-437 291.5,-433 287.5,-433 287.5,-429 291.5,-429 291.5,-409 287.5,-409 287.5,-405 291.5,-405 291.5,-401 380.5,-401 380.5,-437"/>
<polyline fill="none" stroke="black" points="291.5,-433 295.5,-433 295.5,-429 291.5,-429 "/>
<polyline fill="none" stroke="black" points="291.5,-409 295.5,-409 295.5,-405 291.5,-405 "/>
<text text-anchor="middle" x="336" y="-416.5" font-family="Helvetica,sans-Serif" font-size="10.00">Agent Registry</text>
</g>
<!-- reg_Agent_Registry&#45;&gt;domain_agents -->
<g id="edge22" class="edge">
<title>reg_Agent_Registry&#45;&gt;domain_agents</title>
<path fill="none" stroke="black" d="M375.15,-400.84C375.15,-378.65 375.15,-344 375.15,-344 375.15,-344 677,-344 677,-344 677,-344 677,-338 677,-338"/>
<polygon fill="black" stroke="black" points="680.5,-338 677,-328 673.5,-338 680.5,-338"/>
</g>
<!-- governance_block -->
<g id="node23" class="node">
<title>governance_block</title>
<polygon fill="none" stroke="black" points="1151.5,-142 1032.5,-142 1032.5,-106 1157.5,-106 1157.5,-136 1151.5,-142"/>
<polyline fill="none" stroke="black" points="1151.5,-142 1151.5,-136 "/>
<polyline fill="none" stroke="black" points="1157.5,-136 1151.5,-136 "/>
<text text-anchor="middle" x="1095" y="-121.5" font-family="Helvetica,sans-Serif" font-size="10.00">12 Governance&#45;Blöcke</text>
</g>
<!-- governance_block&#45;&gt;layer_Core -->
<g id="edge23" class="edge">
<title>governance_block&#45;&gt;layer_Core</title>
<path fill="none" stroke="#2b8a3e" stroke-dasharray="1,5" d="M1095,-105.79C1095,-79.49 1095,-34 1095,-34 1095,-34 906.02,-34 906.02,-34"/>
<polygon fill="#2b8a3e" stroke="#2b8a3e" points="906.02,-30.5 896.02,-34 906.02,-37.5 906.02,-30.5"/>
<text text-anchor="middle" x="1082" y="-76.8" font-family="Helvetica,sans-Serif" font-size="9.00">guards</text>
</g>
</g>
</svg>
